PathFileType	4	(X/Y/Z)	C:\Users\WrightLab\Desktop\Jo\P4V121.trc
DataRate	CameraRate	NumFrames	NumMarkers	Units	OrigDataRate	OrigDataStartFrame	OrigNumFrames
100.00	100.00	       24	19	mm	100.00	414	       551
Frame#	Time	Headset_Front			Headset_Back			Headset_Left			Headset_Right			Left_Shoulder			Right_Shoulder			Sternum			C7			Left Elbow			Right Elbow			Left Wrist			Right Wrist			Left ASIS			Right ASIS			S2			Left Knee			Right Knee			Left Ankle			Right Ankle			
		X1	Y1	Z1	X2	Y2	Z2	X3	Y3	Z3	X4	Y4	Z4	X5	Y5	Z5	X6	Y6	Z6	X7	Y7	Z7	X8	Y8	Z8	X9	Y9	Z9	X10	Y10	Z10	X11	Y11	Z11	X12	Y12	Z12	X13	Y13	Z13	X14	Y14	Z14	X15	Y15	Z15	X16	Y16	Z16	X17	Y17	Z17	X18	Y18	Z18	X19	Y19	Z19	

414	4.130	-31.95235	1695.71741	1895.10071	-113.40088	1721.58911	1769.70117							154.28099	1538.92285	1745.15186	-129.34305	1519.65735	1632.72864	-15.32865	1478.67627	1802.28491				318.94623	1200.85596	1791.72168	-267.95200	1168.80981	1636.22205	283.05862	925.42584	1932.77319	-304.99423	956.11078	1853.52039	116.90494	1044.82166	1897.90112	-178.07451	1035.99963	1745.59619				83.97117	600.82611	2036.17517	-82.50047	565.06506	1639.30908	28.82521	105.60714	2152.91235	91.46501	106.82607	1459.04187	
415	4.140	-34.10139	1694.92212	1903.19873	-114.94315	1720.42285	1778.76477							152.69954	1537.68896	1756.30579	-130.32292	1518.55823	1643.23254	-16.53489	1477.23181	1812.38354				317.40280	1199.72864	1802.45142	-268.80731	1167.19910	1645.49048	283.45996	923.90997	1943.40088	-306.73611	951.63403	1859.22534	113.43981	1044.35022	1910.95850	-179.59065	1034.71948	1755.42664				78.71775	599.70795	2048.49536	-84.60489	564.60583	1645.81128	25.55542	100.92394	2155.03418	91.37541	108.66403	1459.73010	
416	4.150	-35.74076	1695.10461	1913.13660	-116.74825	1719.46375	1789.78760							151.42963	1536.34778	1767.63916	-131.19452	1517.11243	1652.36157	-18.59089	1476.03467	1823.08984				316.87109	1198.66003	1813.65784	-269.48438	1165.63318	1654.26111	284.05240	922.44922	1954.46326	-308.97412	947.37036	1865.06274	109.51155	1043.46143	1922.82471	-181.79128	1033.44519	1764.31848				72.78635	597.39587	2060.23193	-86.30790	564.53687	1652.96484	23.15727	96.89892	2157.89673	90.73911	112.11322	1461.52441	
417	4.160	-37.97821	1694.69226	1923.28735	-118.55064	1718.11963	1798.05737							149.84390	1535.11707	1779.36206	-131.99648	1515.44482	1661.94458	-20.51048	1474.75122	1832.01184				315.34464	1198.04517	1824.17395	-270.24908	1164.53113	1662.80518	284.35828	921.01251	1965.55371	-311.79364	942.53967	1870.56299	105.61524	1042.78247	1935.75159	-183.85234	1032.17493	1774.74744				67.37802	594.91071	2069.63208	-88.81171	564.11798	1660.70361	21.98714	96.70891	2159.75415	90.96100	113.94043	1462.98230	
418	4.170	-40.23275	1694.13293	1931.79395	-120.16222	1717.39648	1807.12708							148.65167	1533.90320	1790.16650	-132.54219	1513.91199	1671.11877	-22.89659	1474.01367	1843.86230				314.89389	1196.99341	1836.08557	-270.87244	1163.12817	1672.31238	283.82620	919.94727	1976.86621	-314.18759	937.83588	1875.34045	101.77344	1042.47156	1949.54578	-186.22092	1031.54126	1784.53821				62.15251	593.43542	2081.32422	-91.57277	564.49219	1666.56934	19.88994	97.82586	2164.94531	90.01971	117.19881	1464.91077	
419	4.180	-41.88653	1693.21423	1941.47412	-121.29436	1716.68652	1817.42102							146.97049	1532.29895	1802.14673	-132.90126	1512.85364	1680.28101	-24.80506	1473.66565	1854.90991				313.58813	1195.44849	1848.45483	-271.36548	1162.18677	1680.82300	284.03900	917.69214	1986.82776	-316.69077	933.59045	1880.22937	97.21391	1042.40759	1962.58057	-188.71887	1030.32776	1795.25586				58.33947	590.71320	2090.34814	-93.81996	563.30273	1677.42017	17.62549	97.42754	2168.44653	88.96249	120.79514	1466.66614	
420	4.190	-44.06229	1693.65002	1952.18433	-122.93359	1715.16833	1825.37354							145.69183	1531.65125	1813.31494	-133.54185	1511.95081	1689.76599	-26.71722	1473.40466	1864.89282				313.34979	1195.26538	1859.73560	-271.96786	1160.85132	1689.53442	283.22040	916.18927	1997.60986	-318.80621	928.42816	1885.01782	93.03966	1042.04211	1974.26453	-191.07910	1029.00391	1805.07800				56.19725	591.69458	2102.58008	-97.24474	563.07867	1685.03296	16.25359	98.66509	2172.93628	88.04968	124.37275	1468.86365	
421	4.200	-46.47036	1693.75977	1961.04016	-124.44780	1716.05273	1834.70435							144.30266	1530.92041	1825.36401	-134.09859	1511.29761	1698.70313	-28.94553	1472.85461	1873.76111				311.04291	1193.81091	1871.91162	-272.31467	1159.93115	1698.46802	283.36786	914.17609	2007.52087	-320.98184	924.33282	1888.77917	89.34414	1042.54443	1987.38879	-193.47578	1028.12012	1814.18445				53.79165	592.31915	2113.24341	-100.57913	562.86011	1697.22546	15.55951	98.48080	2174.42993	86.58937	128.20374	1470.98303	
422	4.210	-48.56465	1694.92371	1971.18555	-125.75280	1717.16125	1845.31543							142.85791	1530.50037	1836.77368	-134.81337	1510.49243	1707.19690	-30.85567	1473.39783	1884.71106				309.76157	1193.39099	1882.92200	-272.34888	1159.70923	1706.42896	282.69080	912.99176	2018.58081	-323.18640	920.39508	1893.20789	85.67714	1044.38416	1999.39514	-195.55719	1027.49817	1825.34082				50.03294	592.22864	2123.54639	-104.70109	562.11938	1708.37854	14.74674	98.36426	2175.92578	85.64170	132.56192	1474.39539	
423	4.220	-50.29271	1695.87427	1981.20300	-126.46601	1717.97742	1853.85706							141.00638	1529.97827	1848.47314	-135.55989	1511.12061	1716.60962	-33.23048	1474.10022	1896.23315				307.24866	1193.84412	1898.35364	-272.86142	1160.21313	1715.97534	281.71509	912.40527	2030.38208	-325.08231	916.71448	1897.01379	82.10670	1045.79370	2009.86304	-198.21426	1026.96985	1835.09399				47.12045	592.36475	2135.54492	-109.01671	560.72638	1717.43298	13.41490	98.33533	2179.49561	82.94365	137.74643	1477.67737	
424	4.230	-52.16153	1696.78674	1990.93103	-128.32158	1718.97656	1862.71790							139.43570	1531.13464	1860.17578	-136.18030	1512.03601	1726.12891	-36.08322	1474.86096	1906.32349				304.97778	1193.83508	1911.37000	-272.93369	1160.58362	1723.80359	281.00528	912.12439	2041.59998	-327.05176	913.89600	1900.84277	79.12268	1047.90649	2021.24780	-200.25496	1026.42773	1845.50122				43.38396	593.63220	2147.87231	-113.97729	559.64911	1731.65735	14.90090	98.12592	2181.01563	80.39563	142.75035	1481.24976	
425	4.240	-54.58840	1698.17639	2000.65491	-129.94235	1719.30981	1872.04321							137.03690	1531.45557	1871.92224	-136.83775	1512.65674	1735.47754	-37.93575	1475.39355	1915.67664				302.46396	1194.82410	1923.69434				280.17084	912.17682	2052.83008	-329.04770	911.78516	1905.02698	76.71666	1050.63013	2032.69312	-202.22726	1026.09900	1856.97314				39.94003	595.57916	2158.98828	-119.80757	558.61279	1744.82251				78.01346	147.97430	1485.89380	
426	4.250	-56.58307	1699.75549	2010.43042	-131.16109	1719.78796	1882.83655							135.44392	1532.81824	1883.17224	-137.92030	1513.71692	1745.14758	-39.67033	1476.36743	1926.43079				300.32050	1196.65540	1939.73132	-272.88336	1162.27820	1741.06873	278.93253	912.06458	2064.51563	-330.84009	909.85016	1908.72949	74.59700	1053.12219	2043.30420	-204.22809	1025.42847	1866.33057				37.93892	596.58246	2168.59985	-126.71294	557.58154	1758.60095	14.87532	100.06388	2185.41919	74.80391	153.75337	1490.50281	
427	4.260	-58.46937	1701.69983	2020.32507	-132.81367	1721.89014	1892.88428							133.19757	1533.64246	1894.48047	-139.05048	1515.50098	1754.36792	-41.91961	1477.32813	1936.82800				296.35883	1196.94128	1951.42383	-272.78717	1164.00977	1748.26013	276.80176	912.10089	2076.52173	-332.42133	907.67200	1911.48608	72.34921	1055.20898	2053.30518	-205.87695	1025.62048	1877.29785				36.01383	600.28790	2181.29395	-133.76161	556.68408	1772.08789	14.87532	100.06388	2185.41919	70.32069	160.68764	1495.15491	
428	4.270	-60.47430	1703.02271	2030.58691	-134.57578	1723.87048	1901.36865							130.98668	1534.62292	1905.67139	-140.59143	1517.38293	1765.15002	-44.90211	1478.65332	1946.47925				292.85132	1197.93042	1964.35864	-272.99979	1165.23071	1755.44885	274.92044	912.06165	2087.84106	-334.17780	907.23077	1915.64575	70.66043	1057.52917	2063.05713	-207.29982	1025.38147	1887.37732				34.45860	599.45935	2189.12671	-141.12222	555.25897	1785.48779	14.66173	99.95187	2185.65503	66.89371	166.72270	1501.77942	
429	4.280	-63.00125	1704.42200	2039.80359	-136.05348	1725.90308	1910.55225							128.52084	1536.40137	1916.57861	-142.08173	1518.67297	1775.60254	-46.55910	1479.38770	1956.24036				289.46283	1199.40442	1976.59534	-272.94122	1166.55432	1762.33423	272.01242	912.56122	2100.03271	-335.86304	905.83289	1919.17041	69.05824	1059.71399	2072.72681	-208.90327	1025.25964	1897.13660				34.12007	600.57721	2198.00195	-148.29611	554.01141	1800.76147	13.78842	100.59396	2185.69409	63.89539	174.73727	1507.66296	
430	4.290	-65.09411	1706.46448	2049.01270	-137.52299	1726.88232	1920.11926							126.51582	1537.05505	1926.68604	-143.99980	1520.89685	1784.40649	-49.10996	1480.94568	1966.73645				286.77118	1200.76428	1990.82800	-273.23212	1168.08691	1768.84241	268.93839	912.83752	2111.40283	-336.91177	905.86761	1923.03967	67.58597	1062.40723	2083.08252	-210.10719	1025.37488	1906.25781				33.01131	601.05225	2204.96777	-156.02895	553.67456	1814.99487	13.58477	100.51454	2185.88745	60.68085	183.36131	1514.30872	
431	4.300	-67.74639	1708.46570	2059.41992	-139.08003	1728.45251	1929.91772							124.44276	1538.68335	1938.06250	-145.38887	1522.67981	1793.59424	-52.03438	1482.18445	1975.52368				283.79785	1201.85620	2004.00745	-273.51617	1169.57971	1775.08215	264.65781	913.97144	2123.96997	-338.06360	905.20898	1926.93518	66.01990	1065.23804	2093.40771	-210.88850	1025.90967	1915.77380				31.43937	601.52100	2210.94336	-162.85628	552.29645	1829.30017	13.37647	100.66441	2185.81738	56.39601	193.68661	1521.40894	
432	4.310	-69.41354	1710.60010	2068.28906	-140.89537	1730.92334	1938.60913							121.76817	1541.23169	1949.70337	-146.61472	1524.76050	1802.26196	-54.28979	1483.95532	1985.63623				280.60217	1202.85022	2016.38354	-274.40796	1171.61511	1781.71704	261.23849	914.90863	2136.54126	-339.01395	905.44006	1930.75293	64.99520	1067.55371	2102.88745	-211.76207	1026.92126	1924.83667				30.45852	601.44012	2215.85034	-170.25702	552.65631	1843.39368	13.23052	100.81905	2185.71094	53.08021	204.32068	1530.39758	
433	4.320	-72.26398	1712.83838	2077.97656	-142.66948	1734.94788	1947.70691							119.51470	1542.33960	1959.70020	-148.80061	1527.03149	1810.32861	-57.20279	1484.78772	1993.36609				277.26846	1204.62695	2029.35693	-275.67065	1173.70300	1789.52820	256.41910	917.03680	2149.99805	-340.27264	906.08368	1934.71252	63.24960	1069.31641	2111.75195	-212.46581	1028.39502	1931.99561				29.70573	601.01343	2220.53247	-176.74615	552.15833	1859.30945	12.84651	100.73789	2185.99634	49.81718	214.84412	1540.16187	
434	4.330	-74.30438	1714.87476	2087.09229	-143.49506	1738.22778	1956.52515							116.89182	1543.55103	1968.52612	-150.03682	1529.34790	1819.50415	-59.69791	1486.95508	2002.56873				273.80240	1206.85095	2043.20776	-277.00076	1176.10034	1795.71973	251.39040	918.46655	2160.99121	-341.17566	906.93591	1937.83154	61.49118	1071.11926	2119.87915	-213.39301	1030.15381	1939.59607				28.92458	601.90375	2225.76392	-184.05838	552.91229	1870.80798	12.11512	101.34695	2186.00269	45.88880	225.48839	1550.33459	
435	4.340	-76.46461	1716.99536	2096.17798	-145.51808	1739.86145	1964.99255							113.88917	1546.71863	1978.82837	-151.84525	1531.94043	1826.34607	-62.37804	1488.69897	2009.55542				270.56195	1209.60535	2058.17114	-277.96609	1178.66077	1802.94788	245.92677	920.46167	2173.96582	-342.11566	908.39746	1941.98816	59.85302	1073.12878	2128.48389	-214.60173	1032.51025	1946.78772				28.17031	601.25232	2227.21582	-191.04460	554.02411	1886.46399	12.13828	101.50440	2185.80884	41.78188	237.36156	1561.72070	
436	4.350	-79.17757	1718.92883	2105.04663	-148.00766	1742.85413	1974.38306							111.39376	1548.88574	1989.19604	-153.28830	1534.87634	1835.07666	-65.35770	1491.45740	2019.30713				266.35498	1212.56921	2070.00659	-279.10736	1181.38611	1808.98682	240.44080	923.78674	2187.06274	-342.30667	910.28534	1947.53882	57.82824	1074.87732	2136.91553	-215.45689	1035.14026	1954.79419				26.98208	600.29156	2229.49780	-198.21712	556.32404	1899.56104	12.00300	101.68092	2185.67188	37.62517	246.56438	1575.34778	
437	4.360	-81.18975	1721.52820	2113.61914	-149.54572	1744.98914	1983.65662							109.18198	1551.32642	1996.80078	-154.54729	1536.69287	1841.08203	-67.79726	1492.87048	2025.52563				262.17404	1215.13293	2082.40479	-280.36319	1184.07629	1814.74133	233.71619	926.61115	2199.65186	-343.21375	912.04205	1951.56641	55.85591	1076.69800	2143.97949	-219.39606	1039.43921	1961.17578				26.36032	600.86456	2232.17554	-204.29149	557.49750	1914.38208	12.00300	101.68092	2185.67188	33.80569	257.02542	1588.16602	
